<svg width="40" height="40" viewBox="0 0 40 40" fill="none" xmlns="http://www.w3.org/2000/svg">
<g id="jam:menu">
<path id="Vector" d="M10 11.6667H18.3334C18.7754 11.6667 19.1993 11.8423 19.5119 12.1548C19.8244 12.4674 20 12.8913 20 13.3333C20 13.7754 19.8244 14.1993 19.5119 14.5118C19.1993 14.8244 18.7754 15 18.3334 15H10C9.55801 15 9.13409 14.8244 8.82153 14.5118C8.50897 14.1993 8.33337 13.7754 8.33337 13.3333C8.33337 12.8913 8.50897 12.4674 8.82153 12.1548C9.13409 11.8423 9.55801 11.6667 10 11.6667ZM21.6667 25H30C30.4421 25 30.866 25.1756 31.1786 25.4881C31.4911 25.8007 31.6667 26.2246 31.6667 26.6667C31.6667 27.1087 31.4911 27.5326 31.1786 27.8452C30.866 28.1577 30.4421 28.3333 30 28.3333H21.6667C21.2247 28.3333 20.8008 28.1577 20.4882 27.8452C20.1756 27.5326 20 27.1087 20 26.6667C20 26.2246 20.1756 25.8007 20.4882 25.4881C20.8008 25.1756 21.2247 25 21.6667 25ZM10 18.3333H30C30.4421 18.3333 30.866 18.5089 31.1786 18.8215C31.4911 19.134 31.6667 19.558 31.6667 20C31.6667 20.442 31.4911 20.8659 31.1786 21.1785C30.866 21.4911 30.4421 21.6667 30 21.6667H10C9.55801 21.6667 9.13409 21.4911 8.82153 21.1785C8.50897 20.8659 8.33337 20.442 8.33337 20C8.33337 19.558 8.50897 19.134 8.82153 18.8215C9.13409 18.5089 9.55801 18.3333 10 18.3333Z" fill="white"/>
</g>
</svg>
