<svg width="25" height="25" viewBox="0 0 25 25" fill="none" xmlns="http://www.w3.org/2000/svg">
<g id="fluent:magic-wand-48-filled">
<path id="Vector" d="M19.5568 4.47656C19.5568 4.3108 19.4909 4.15183 19.3737 4.03462C19.2565 3.91741 19.0975 3.85156 18.9318 3.85156C18.766 3.85156 18.607 3.91741 18.4898 4.03462C18.3726 4.15183 18.3068 4.3108 18.3068 4.47656V5.35156H17.4318C17.266 5.35156 17.107 5.41741 16.9898 5.53462C16.8726 5.65183 16.8068 5.8108 16.8068 5.97656C16.8068 6.14232 16.8726 6.30129 16.9898 6.4185C17.107 6.53571 17.266 6.60156 17.4318 6.60156H18.3068V7.47656C18.3068 7.64232 18.3726 7.80129 18.4898 7.9185C18.607 8.03571 18.766 8.10156 18.9318 8.10156C19.0975 8.10156 19.2565 8.03571 19.3737 7.9185C19.4909 7.80129 19.5568 7.64232 19.5568 7.47656V6.60156H20.4318C20.5975 6.60156 20.7565 6.53571 20.8737 6.4185C20.9909 6.30129 21.0568 6.14232 21.0568 5.97656C21.0568 5.8108 20.9909 5.65183 20.8737 5.53462C20.7565 5.41741 20.5975 5.35156 20.4318 5.35156H19.5568V4.47656ZM7.55677 6.47656C7.55677 6.3108 7.49092 6.15183 7.37371 6.03462C7.2565 5.91741 7.09753 5.85156 6.93177 5.85156C6.76601 5.85156 6.60704 5.91741 6.48983 6.03462C6.37262 6.15183 6.30677 6.3108 6.30677 6.47656V7.35156H5.43177C5.26601 7.35156 5.10704 7.41741 4.98983 7.53462C4.87262 7.65183 4.80677 7.8108 4.80677 7.97656C4.80677 8.14232 4.87262 8.30129 4.98983 8.4185C5.10704 8.53571 5.26601 8.60156 5.43177 8.60156H6.30677V9.47656C6.30677 9.64232 6.37262 9.80129 6.48983 9.9185C6.60704 10.0357 6.76601 10.1016 6.93177 10.1016C7.09753 10.1016 7.2565 10.0357 7.37371 9.9185C7.49092 9.80129 7.55677 9.64232 7.55677 9.47656V8.60156H8.43177C8.59753 8.60156 8.7565 8.53571 8.87371 8.4185C8.99092 8.30129 9.05677 8.14232 9.05677 7.97656C9.05677 7.8108 8.99092 7.65183 8.87371 7.53462C8.7565 7.41741 8.59753 7.35156 8.43177 7.35156H7.55677V6.47656ZM16.9318 15.8516C17.2768 15.8516 17.5568 16.1316 17.5568 16.4766V17.3516H18.4318C18.5975 17.3516 18.7565 17.4174 18.8737 17.5346C18.9909 17.6518 19.0568 17.8108 19.0568 17.9766C19.0568 18.1423 18.9909 18.3013 18.8737 18.4185C18.7565 18.5357 18.5975 18.6016 18.4318 18.6016H17.5568V19.4766C17.5568 19.6423 17.4909 19.8013 17.3737 19.9185C17.2565 20.0357 17.0975 20.1016 16.9318 20.1016C16.766 20.1016 16.607 20.0357 16.4898 19.9185C16.3726 19.8013 16.3068 19.6423 16.3068 19.4766V18.6016H15.4318C15.266 18.6016 15.107 18.5357 14.9898 18.4185C14.8726 18.3013 14.8068 18.1423 14.8068 17.9766C14.8068 17.8108 14.8726 17.6518 14.9898 17.5346C15.107 17.4174 15.266 17.3516 15.4318 17.3516H16.3068V16.4766C16.3068 16.1316 16.5868 15.8516 16.9318 15.8516ZM16.3603 8.55356C15.9149 8.10824 15.3108 7.85807 14.681 7.85807C14.0512 7.85807 13.4472 8.10824 13.0018 8.55356L12.3218 9.23306L15.6808 12.5916L16.3603 11.9126C16.5808 11.692 16.7558 11.4302 16.8752 11.142C16.9946 10.8538 17.056 10.545 17.056 10.2331C17.056 9.92114 16.9946 9.61228 16.8752 9.32411C16.7558 9.03594 16.5808 8.77411 16.3603 8.55356ZM14.7973 13.4756L11.4383 10.1171L2.75477 18.8006C2.31086 19.2462 2.0619 19.8498 2.0625 20.4789C2.06311 21.1079 2.31323 21.711 2.758 22.1558C3.20276 22.6007 3.80583 22.8509 4.43486 22.8516C5.0639 22.8523 5.66752 22.6034 6.11327 22.1596L14.7973 13.4756Z" fill="#DEC545"/>
</g>
</svg>
